<svg width="1200" height="1200" viewBox="0 0 1200 1200" fill="none" xmlns="http://www.w3.org/2000/svg">
<path d="M971.727 825.073C971.727 531.706 793.468 382.551 793.468 382.551C793.468 382.551 719.905 397.659 644.414 510.555C693.731 461.386 738.365 424.029 782.723 409.745C903.123 541.046 905.052 763.543 905.052 763.543C746.079 763.543 648.271 375.134 319.029 375.134C319.029 375.134 190.913 554.231 190.913 815.184C245.466 815.184 396.724 795.407 515.196 669.874C423.174 737.447 287.344 778.101 221.496 776.178C230.037 726.735 250.149 641.307 288.997 596.533C592.892 596.258 635.321 825.073 971.727 825.073Z" fill="black"/>
<path d="M899.28 381.999C920.77 381.999 938.403 364.419 938.403 342.993C938.403 321.568 920.77 303.988 899.28 303.988C877.514 303.988 860.157 321.568 860.157 342.993C860.157 364.419 877.514 381.999 899.28 381.999Z" fill="black"/>
<path d="M822.952 280.091C830.667 280.091 837.004 273.773 837.004 266.082C837.004 258.391 830.667 252.073 822.952 252.073C815.238 252.073 808.901 258.391 808.901 266.082C808.901 273.773 815.238 280.091 822.952 280.091Z" fill="black"/>
<path d="M988.525 322.67C977.229 322.67 968.137 331.734 968.137 342.997C968.137 354.259 977.229 363.324 988.525 363.324C999.821 363.324 1008.91 354.259 1008.91 342.997C1008.91 331.734 999.821 322.67 988.525 322.67Z" fill="black"/>
</svg>
